<?xml version="1.0" encoding="UTF-8" standalone="no"?>
<!DOCTYPE svg PUBLIC "-//W3C//DTD SVG 1.1//EN"
 "http://www.w3.org/Graphics/SVG/1.1/DTD/svg11.dtd">
<!-- Generated by graphviz version 2.47.0 (20210316.0004)
 -->
<!-- Title: dependencies Pages: 1 -->
<svg width="504pt" height="211pt"
 viewBox="0.00 0.00 504.00 211.00" xmlns="http://www.w3.org/2000/svg" xmlns:xlink="http://www.w3.org/1999/xlink">
<g id="graph0" class="graph" transform="scale(1 1) rotate(0) translate(4 207)">
<title>dependencies</title>
<polygon fill="white" stroke="transparent" points="-4,4 -4,-207 500,-207 500,4 -4,4"/>
<text text-anchor="start" x="227.01" y="-42.4" font-family="Times-12" font-weight="bold" font-size="14.00">Legend</text>
<polygon fill="#ffffb3" stroke="transparent" points="14,-10 14,-30 34,-30 34,-10 14,-10"/>
<text text-anchor="start" x="37.63" y="-15.4" font-family="Times-12" font-size="14.00"> &#160;Declarations</text>
<polygon fill="#8dd3c7" stroke="transparent" points="127,-10 127,-30 147,-30 147,-10 127,-10"/>
<text text-anchor="start" x="150.73" y="-15.4" font-family="Times-12" font-size="14.00"> &#160;Module</text>
<polygon fill="#80b1d3" stroke="transparent" points="213,-10 213,-30 233,-30 233,-10 213,-10"/>
<text text-anchor="start" x="236.78" y="-15.4" font-family="Times-12" font-size="14.00"> &#160;Bootstrap</text>
<polygon fill="#fdb462" stroke="transparent" points="310,-10 310,-30 330,-30 330,-10 310,-10"/>
<text text-anchor="start" x="333.67" y="-15.4" font-family="Times-12" font-size="14.00"> &#160;Providers</text>
<polygon fill="#fb8072" stroke="transparent" points="406,-10 406,-30 426,-30 426,-10 406,-10"/>
<text text-anchor="start" x="429.73" y="-15.4" font-family="Times-12" font-size="14.00"> &#160;Exports</text>
<g id="clust1" class="cluster">
<title>cluster_PostsModule</title>
<polygon fill="none" stroke="black" stroke-dasharray="1,5" points="63,-70 63,-195 433,-195 433,-70 63,-70"/>
</g>
<g id="clust3" class="cluster">
<title>cluster_PostsModule_imports</title>
<polygon fill="none" stroke="black" points="215,-78 215,-130 425,-130 425,-78 215,-78"/>
</g>
<g id="clust6" class="cluster">
<title>cluster_PostsModule_providers</title>
<polygon fill="none" stroke="black" points="71,-78 71,-130 207,-130 207,-78 71,-78"/>
</g>
<!-- MetaOption -->
<g id="node1" class="node">
<title>MetaOption</title>
<polygon fill="#8dd3c7" stroke="black" points="416.65,-122 413.65,-126 392.65,-126 389.65,-122 333.35,-122 333.35,-86 416.65,-86 416.65,-122"/>
<text text-anchor="middle" x="375" y="-99.8" font-family="Times,serif" font-size="14.00">MetaOption</text>
</g>
<!-- PostsModule -->
<g id="node3" class="node">
<title>PostsModule</title>
<polygon fill="#8dd3c7" stroke="black" points="313.61,-187 310.61,-191 289.61,-191 286.61,-187 224.39,-187 224.39,-151 313.61,-151 313.61,-187"/>
<text text-anchor="middle" x="269" y="-164.8" font-family="Times,serif" font-size="14.00">PostsModule</text>
</g>
<!-- MetaOption&#45;&gt;PostsModule -->
<g id="edge1" class="edge">
<title>MetaOption&#45;&gt;PostsModule</title>
<path fill="none" stroke="black" d="M375,-122.11C375,-141.34 375,-169 375,-169 375,-169 323.65,-169 323.65,-169"/>
<polygon fill="black" stroke="black" points="323.65,-165.5 313.65,-169 323.65,-172.5 323.65,-165.5"/>
</g>
<!-- UsersModule -->
<g id="node2" class="node">
<title>UsersModule</title>
<polygon fill="#8dd3c7" stroke="black" points="314.92,-122 311.92,-126 290.92,-126 287.92,-122 223.08,-122 223.08,-86 314.92,-86 314.92,-122"/>
<text text-anchor="middle" x="269" y="-99.8" font-family="Times,serif" font-size="14.00">UsersModule</text>
</g>
<!-- UsersModule&#45;&gt;PostsModule -->
<g id="edge2" class="edge">
<title>UsersModule&#45;&gt;PostsModule</title>
<path fill="none" stroke="black" d="M269,-122.11C269,-122.11 269,-140.99 269,-140.99"/>
<polygon fill="black" stroke="black" points="265.5,-140.99 269,-150.99 272.5,-140.99 265.5,-140.99"/>
</g>
<!-- PostsService -->
<g id="node4" class="node">
<title>PostsService</title>
<ellipse fill="#fdb462" stroke="black" cx="139" cy="-104" rx="60.27" ry="18"/>
<text text-anchor="middle" x="139" y="-99.8" font-family="Times,serif" font-size="14.00">PostsService</text>
</g>
<!-- PostsService&#45;&gt;PostsModule -->
<g id="edge3" class="edge">
<title>PostsService&#45;&gt;PostsModule</title>
<path fill="none" stroke="black" d="M139,-122.11C139,-141.34 139,-169 139,-169 139,-169 214.26,-169 214.26,-169"/>
<polygon fill="black" stroke="black" points="214.26,-172.5 224.26,-169 214.26,-165.5 214.26,-172.5"/>
</g>
</g>
</svg>
