<?xml version="1.0" encoding="UTF-8" standalone="no"?>
<!DOCTYPE svg PUBLIC "-//W3C//DTD SVG 1.1//EN"
 "http://www.w3.org/Graphics/SVG/1.1/DTD/svg11.dtd">
<!-- Generated by graphviz version 2.47.0 (20210316.0004)
 -->
<!-- Title: dependencies Pages: 1 -->
<svg width="1468pt" height="363pt"
 viewBox="0.00 0.00 1468.00 363.00" xmlns="http://www.w3.org/2000/svg" xmlns:xlink="http://www.w3.org/1999/xlink">
<g id="graph0" class="graph" transform="scale(1 1) rotate(0) translate(4 359)">
<title>dependencies</title>
<polygon fill="white" stroke="transparent" points="-4,4 -4,-359 1464,-359 1464,4 -4,4"/>
<text text-anchor="start" x="709.01" y="-42.4" font-family="Times-12" font-weight="bold" font-size="14.00">Legend</text>
<polygon fill="#ffffb3" stroke="transparent" points="496,-10 496,-30 516,-30 516,-10 496,-10"/>
<text text-anchor="start" x="519.63" y="-15.4" font-family="Times-12" font-size="14.00"> &#160;Declarations</text>
<polygon fill="#8dd3c7" stroke="transparent" points="609,-10 609,-30 629,-30 629,-10 609,-10"/>
<text text-anchor="start" x="632.73" y="-15.4" font-family="Times-12" font-size="14.00"> &#160;Module</text>
<polygon fill="#80b1d3" stroke="transparent" points="695,-10 695,-30 715,-30 715,-10 695,-10"/>
<text text-anchor="start" x="718.78" y="-15.4" font-family="Times-12" font-size="14.00"> &#160;Bootstrap</text>
<polygon fill="#fdb462" stroke="transparent" points="792,-10 792,-30 812,-30 812,-10 792,-10"/>
<text text-anchor="start" x="815.67" y="-15.4" font-family="Times-12" font-size="14.00"> &#160;Providers</text>
<polygon fill="#fb8072" stroke="transparent" points="888,-10 888,-30 908,-30 908,-10 888,-10"/>
<text text-anchor="start" x="911.73" y="-15.4" font-family="Times-12" font-size="14.00"> &#160;Exports</text>
<g id="clust1" class="cluster">
<title>cluster_AppModule</title>
<polygon fill="none" stroke="black" stroke-dasharray="1,5" points="276,-146 276,-347 898,-347 898,-146 276,-146"/>
</g>
<g id="clust3" class="cluster">
<title>cluster_AppModule_imports</title>
<polygon fill="none" stroke="black" points="422,-154 422,-282 890,-282 890,-154 422,-154"/>
</g>
<g id="clust6" class="cluster">
<title>cluster_AppModule_providers</title>
<polygon fill="none" stroke="black" points="284,-230 284,-282 414,-282 414,-230 284,-230"/>
</g>
<g id="clust7" class="cluster">
<title>cluster_AuthModule</title>
<polygon fill="none" stroke="black" stroke-dasharray="1,5" points="906,-222 906,-290 1170,-290 1170,-222 906,-222"/>
</g>
<g id="clust10" class="cluster">
<title>cluster_AuthModule_exports</title>
<polygon fill="none" stroke="black" points="1056,-230 1056,-282 1162,-282 1162,-230 1056,-230"/>
</g>
<g id="clust12" class="cluster">
<title>cluster_AuthModule_providers</title>
<polygon fill="none" stroke="black" points="914,-230 914,-282 1048,-282 1048,-230 914,-230"/>
</g>
<g id="clust13" class="cluster">
<title>cluster_MetaOptionsModule</title>
<polygon fill="none" stroke="black" stroke-dasharray="1,5" points="390,-70 390,-138 602,-138 602,-70 390,-70"/>
</g>
<g id="clust18" class="cluster">
<title>cluster_MetaOptionsModule_providers</title>
<polygon fill="none" stroke="black" points="398,-78 398,-130 594,-130 594,-78 398,-78"/>
</g>
<g id="clust19" class="cluster">
<title>cluster_PostsModule</title>
<polygon fill="none" stroke="black" stroke-dasharray="1,5" points="8,-146 8,-214 268,-214 268,-146 8,-146"/>
</g>
<g id="clust21" class="cluster">
<title>cluster_PostsModule_imports</title>
<polygon fill="none" stroke="black" points="160,-154 160,-206 260,-206 260,-154 160,-154"/>
</g>
<g id="clust24" class="cluster">
<title>cluster_PostsModule_providers</title>
<polygon fill="none" stroke="black" points="16,-154 16,-206 152,-206 152,-154 16,-154"/>
</g>
<g id="clust31" class="cluster">
<title>cluster_UsersModule</title>
<polygon fill="none" stroke="black" stroke-dasharray="1,5" points="1178,-222 1178,-290 1452,-290 1452,-222 1178,-222"/>
</g>
<g id="clust34" class="cluster">
<title>cluster_UsersModule_exports</title>
<polygon fill="none" stroke="black" points="1334,-230 1334,-282 1444,-282 1444,-230 1334,-230"/>
</g>
<g id="clust36" class="cluster">
<title>cluster_UsersModule_providers</title>
<polygon fill="none" stroke="black" points="1186,-230 1186,-282 1326,-282 1326,-230 1186,-230"/>
</g>
<!-- AuthModule -->
<g id="node1" class="node">
<title>AuthModule</title>
<polygon fill="#8dd3c7" stroke="black" points="772.55,-198 769.55,-202 748.55,-202 745.55,-198 685.45,-198 685.45,-162 772.55,-162 772.55,-198"/>
<text text-anchor="middle" x="729" y="-175.8" font-family="Times,serif" font-size="14.00">AuthModule</text>
</g>
<!-- AppModule -->
<g id="node6" class="node">
<title>AppModule</title>
<polygon fill="#8dd3c7" stroke="black" points="642.66,-339 639.66,-343 618.66,-343 615.66,-339 559.34,-339 559.34,-303 642.66,-303 642.66,-339"/>
<text text-anchor="middle" x="601" y="-316.8" font-family="Times,serif" font-size="14.00">AppModule</text>
</g>
<!-- AuthModule&#45;&gt;AppModule -->
<g id="edge1" class="edge">
<title>AuthModule&#45;&gt;AppModule</title>
<path fill="none" stroke="black" d="M729,-198.21C729,-235.06 729,-315 729,-315 729,-315 652.91,-315 652.91,-315"/>
<polygon fill="black" stroke="black" points="652.91,-311.5 642.91,-315 652.91,-318.5 652.91,-311.5"/>
</g>
<!-- AuthService  -->
<g id="node8" class="node">
<title>AuthService </title>
<polygon fill="#fb8072" stroke="black" points="1153.98,-274 1064.02,-274 1064.02,-238 1153.98,-238 1153.98,-274"/>
<text text-anchor="middle" x="1109" y="-251.8" font-family="Times,serif" font-size="14.00">AuthService </text>
</g>
<!-- AuthModule&#45;&gt;AuthService  -->
<g id="edge7" class="edge">
<title>AuthModule&#45;&gt;AuthService </title>
<path fill="none" stroke="black" stroke-dasharray="5,2" d="M707.11,-198.04C707.11,-210.56 707.11,-225 707.11,-225 707.11,-225 1109,-225 1109,-225 1109,-225 1109,-227.97 1109,-227.97"/>
<polygon fill="black" stroke="black" points="1105.5,-227.97 1109,-237.97 1112.5,-227.97 1105.5,-227.97"/>
</g>
<!-- MetaOptionsModule -->
<g id="node2" class="node">
<title>MetaOptionsModule</title>
<polygon fill="#8dd3c7" stroke="black" points="562.15,-198 559.15,-202 538.15,-202 535.15,-198 429.85,-198 429.85,-162 562.15,-162 562.15,-198"/>
<text text-anchor="middle" x="496" y="-175.8" font-family="Times,serif" font-size="14.00">MetaOptionsModule</text>
</g>
<!-- MetaOptionsModule&#45;&gt;AppModule -->
<g id="edge2" class="edge">
<title>MetaOptionsModule&#45;&gt;AppModule</title>
<path fill="none" stroke="black" d="M555.36,-198.03C555.36,-237.28 555.36,-327 555.36,-327 555.36,-327 555.75,-327 555.75,-327"/>
<polygon fill="black" stroke="black" points="549.25,-330.5 559.25,-327 549.25,-323.5 549.25,-330.5"/>
</g>
<!-- PostsModule -->
<g id="node3" class="node">
<title>PostsModule</title>
<polygon fill="#8dd3c7" stroke="black" points="551.61,-274 548.61,-278 527.61,-278 524.61,-274 462.39,-274 462.39,-238 551.61,-238 551.61,-274"/>
<text text-anchor="middle" x="507" y="-251.8" font-family="Times,serif" font-size="14.00">PostsModule</text>
</g>
<!-- PostsModule&#45;&gt;AppModule -->
<g id="edge3" class="edge">
<title>PostsModule&#45;&gt;AppModule</title>
<path fill="none" stroke="black" d="M551.78,-265C562.78,-265 571.47,-265 571.47,-265 571.47,-265 571.47,-292.97 571.47,-292.97"/>
<polygon fill="black" stroke="black" points="567.97,-292.97 571.47,-302.97 574.97,-292.97 567.97,-292.97"/>
</g>
<!-- TagsModule -->
<g id="node4" class="node">
<title>TagsModule</title>
<polygon fill="#8dd3c7" stroke="black" points="667.26,-198 664.26,-202 643.26,-202 640.26,-198 580.74,-198 580.74,-162 667.26,-162 667.26,-198"/>
<text text-anchor="middle" x="624" y="-175.8" font-family="Times,serif" font-size="14.00">TagsModule</text>
</g>
<!-- TagsModule&#45;&gt;AppModule -->
<g id="edge4" class="edge">
<title>TagsModule&#45;&gt;AppModule</title>
<path fill="none" stroke="black" d="M611.72,-198.14C611.72,-198.14 611.72,-292.93 611.72,-292.93"/>
<polygon fill="black" stroke="black" points="608.22,-292.92 611.72,-302.93 615.22,-292.93 608.22,-292.92"/>
</g>
<!-- UsersModule -->
<g id="node5" class="node">
<title>UsersModule</title>
<polygon fill="#8dd3c7" stroke="black" points="881.92,-198 878.92,-202 857.92,-202 854.92,-198 790.08,-198 790.08,-162 881.92,-162 881.92,-198"/>
<text text-anchor="middle" x="836" y="-175.8" font-family="Times,serif" font-size="14.00">UsersModule</text>
</g>
<!-- UsersModule&#45;&gt;PostsModule -->
<g id="edge11" class="edge">
<title>UsersModule&#45;&gt;PostsModule</title>
<path fill="none" stroke="black" d="M820.76,-198.31C820.76,-218.15 820.76,-247 820.76,-247 820.76,-247 561.62,-247 561.62,-247"/>
<polygon fill="black" stroke="black" points="561.62,-243.5 551.62,-247 561.62,-250.5 561.62,-243.5"/>
</g>
<!-- UsersModule&#45;&gt;AppModule -->
<g id="edge5" class="edge">
<title>UsersModule&#45;&gt;AppModule</title>
<path fill="none" stroke="black" d="M851.24,-198.03C851.24,-237.28 851.24,-327 851.24,-327 851.24,-327 652.88,-327 652.88,-327"/>
<polygon fill="black" stroke="black" points="652.88,-323.5 642.88,-327 652.88,-330.5 652.88,-323.5"/>
</g>
<!-- UsersService  -->
<g id="node13" class="node">
<title>UsersService </title>
<polygon fill="#fb8072" stroke="black" points="1435.85,-274 1342.15,-274 1342.15,-238 1435.85,-238 1435.85,-274"/>
<text text-anchor="middle" x="1389" y="-251.8" font-family="Times,serif" font-size="14.00">UsersService </text>
</g>
<!-- UsersModule&#45;&gt;UsersService  -->
<g id="edge13" class="edge">
<title>UsersModule&#45;&gt;UsersService </title>
<path fill="none" stroke="black" stroke-dasharray="5,2" d="M881.72,-174C1014.22,-174 1389,-174 1389,-174 1389,-174 1389,-227.8 1389,-227.8"/>
<polygon fill="black" stroke="black" points="1385.5,-227.8 1389,-237.8 1392.5,-227.8 1385.5,-227.8"/>
</g>
<!-- AppService -->
<g id="node7" class="node">
<title>AppService</title>
<ellipse fill="#fdb462" stroke="black" cx="349" cy="-256" rx="56.74" ry="18"/>
<text text-anchor="middle" x="349" y="-251.8" font-family="Times,serif" font-size="14.00">AppService</text>
</g>
<!-- AppService&#45;&gt;AppModule -->
<g id="edge6" class="edge">
<title>AppService&#45;&gt;AppModule</title>
<path fill="none" stroke="black" d="M349,-274.02C349,-291.37 349,-315 349,-315 349,-315 549.1,-315 549.1,-315"/>
<polygon fill="black" stroke="black" points="549.1,-318.5 559.1,-315 549.1,-311.5 549.1,-318.5"/>
</g>
<!-- AuthService -->
<g id="node9" class="node">
<title>AuthService</title>
<ellipse fill="#fdb462" stroke="black" cx="981" cy="-256" rx="59.11" ry="18"/>
<text text-anchor="middle" x="981" y="-251.8" font-family="Times,serif" font-size="14.00">AuthService</text>
</g>
<!-- AuthService&#45;&gt;AuthModule -->
<g id="edge8" class="edge">
<title>AuthService&#45;&gt;AuthModule</title>
<path fill="none" stroke="black" d="M921.44,-256C853.26,-256 750.89,-256 750.89,-256 750.89,-256 750.89,-208.01 750.89,-208.01"/>
<polygon fill="black" stroke="black" points="754.39,-208.01 750.89,-198.01 747.39,-208.01 754.39,-208.01"/>
</g>
<!-- MetaOptionsService -->
<g id="node10" class="node">
<title>MetaOptionsService</title>
<ellipse fill="#fdb462" stroke="black" cx="496" cy="-104" rx="90.33" ry="18"/>
<text text-anchor="middle" x="496" y="-99.8" font-family="Times,serif" font-size="14.00">MetaOptionsService</text>
</g>
<!-- MetaOptionsService&#45;&gt;MetaOptionsModule -->
<g id="edge9" class="edge">
<title>MetaOptionsService&#45;&gt;MetaOptionsModule</title>
<path fill="none" stroke="black" d="M496,-122.01C496,-122.01 496,-151.85 496,-151.85"/>
<polygon fill="black" stroke="black" points="492.5,-151.85 496,-161.85 499.5,-151.85 492.5,-151.85"/>
</g>
<!-- MetaOption -->
<g id="node11" class="node">
<title>MetaOption</title>
<polygon fill="#8dd3c7" stroke="black" points="251.65,-198 248.65,-202 227.65,-202 224.65,-198 168.35,-198 168.35,-162 251.65,-162 251.65,-198"/>
<text text-anchor="middle" x="210" y="-175.8" font-family="Times,serif" font-size="14.00">MetaOption</text>
</g>
<!-- MetaOption&#45;&gt;PostsModule -->
<g id="edge10" class="edge">
<title>MetaOption&#45;&gt;PostsModule</title>
<path fill="none" stroke="black" d="M252.02,-180C312.7,-180 417.65,-180 417.65,-180 417.65,-180 417.65,-256 417.65,-256 417.65,-256 452.32,-256 452.32,-256"/>
<polygon fill="black" stroke="black" points="452.32,-259.5 462.32,-256 452.32,-252.5 452.32,-259.5"/>
</g>
<!-- PostsService -->
<g id="node12" class="node">
<title>PostsService</title>
<ellipse fill="#fdb462" stroke="black" cx="84" cy="-180" rx="60.27" ry="18"/>
<text text-anchor="middle" x="84" y="-175.8" font-family="Times,serif" font-size="14.00">PostsService</text>
</g>
<!-- PostsService&#45;&gt;PostsModule -->
<g id="edge12" class="edge">
<title>PostsService&#45;&gt;PostsModule</title>
<path fill="none" stroke="black" d="M84,-198.24C84,-205.43 84,-212 84,-212 84,-212 507,-212 507,-212 507,-212 507,-227.85 507,-227.85"/>
<polygon fill="black" stroke="black" points="503.5,-227.85 507,-237.85 510.5,-227.85 503.5,-227.85"/>
</g>
<!-- UsersService -->
<g id="node14" class="node">
<title>UsersService</title>
<ellipse fill="#fdb462" stroke="black" cx="1256" cy="-256" rx="61.95" ry="18"/>
<text text-anchor="middle" x="1256" y="-251.8" font-family="Times,serif" font-size="14.00">UsersService</text>
</g>
<!-- UsersService&#45;&gt;UsersModule -->
<g id="edge14" class="edge">
<title>UsersService&#45;&gt;UsersModule</title>
<path fill="none" stroke="black" d="M1256,-237.97C1256,-217.23 1256,-186 1256,-186 1256,-186 891.75,-186 891.75,-186"/>
<polygon fill="black" stroke="black" points="891.75,-182.5 881.75,-186 891.75,-189.5 891.75,-182.5"/>
</g>
</g>
</svg>
