<?xml version="1.0" encoding="UTF-8" standalone="no"?>
<!DOCTYPE svg PUBLIC "-//W3C//DTD SVG 1.1//EN"
 "http://www.w3.org/Graphics/SVG/1.1/DTD/svg11.dtd">
<!-- Generated by graphviz version 2.47.0 (20210316.0004)
 -->
<!-- Title: dependencies Pages: 1 -->
<svg width="2086pt" height="363pt"
 viewBox="0.00 0.00 2086.00 363.00" xmlns="http://www.w3.org/2000/svg" xmlns:xlink="http://www.w3.org/1999/xlink">
<g id="graph0" class="graph" transform="scale(1 1) rotate(0) translate(4 359)">
<title>dependencies</title>
<polygon fill="white" stroke="transparent" points="-4,4 -4,-359 2082,-359 2082,4 -4,4"/>
<text text-anchor="start" x="1018.01" y="-42.4" font-family="Times-12" font-weight="bold" font-size="14.00">Legend</text>
<polygon fill="#ffffb3" stroke="transparent" points="805,-10 805,-30 825,-30 825,-10 805,-10"/>
<text text-anchor="start" x="828.63" y="-15.4" font-family="Times-12" font-size="14.00"> &#160;Declarations</text>
<polygon fill="#8dd3c7" stroke="transparent" points="918,-10 918,-30 938,-30 938,-10 918,-10"/>
<text text-anchor="start" x="941.73" y="-15.4" font-family="Times-12" font-size="14.00"> &#160;Module</text>
<polygon fill="#80b1d3" stroke="transparent" points="1004,-10 1004,-30 1024,-30 1024,-10 1004,-10"/>
<text text-anchor="start" x="1027.78" y="-15.4" font-family="Times-12" font-size="14.00"> &#160;Bootstrap</text>
<polygon fill="#fdb462" stroke="transparent" points="1101,-10 1101,-30 1121,-30 1121,-10 1101,-10"/>
<text text-anchor="start" x="1124.67" y="-15.4" font-family="Times-12" font-size="14.00"> &#160;Providers</text>
<polygon fill="#fb8072" stroke="transparent" points="1197,-10 1197,-30 1217,-30 1217,-10 1197,-10"/>
<text text-anchor="start" x="1220.73" y="-15.4" font-family="Times-12" font-size="14.00"> &#160;Exports</text>
<g id="clust1" class="cluster">
<title>cluster_AppModule</title>
<polygon fill="none" stroke="black" stroke-dasharray="1,5" points="168,-146 168,-347 928,-347 928,-146 168,-146"/>
</g>
<g id="clust3" class="cluster">
<title>cluster_AppModule_imports</title>
<polygon fill="none" stroke="black" points="314,-154 314,-282 920,-282 920,-154 314,-154"/>
</g>
<g id="clust6" class="cluster">
<title>cluster_AppModule_providers</title>
<polygon fill="none" stroke="black" points="176,-230 176,-282 306,-282 306,-230 176,-230"/>
</g>
<g id="clust7" class="cluster">
<title>cluster_AuthModule</title>
<polygon fill="none" stroke="black" stroke-dasharray="1,5" points="936,-222 936,-290 1200,-290 1200,-222 936,-222"/>
</g>
<g id="clust10" class="cluster">
<title>cluster_AuthModule_exports</title>
<polygon fill="none" stroke="black" points="1086,-230 1086,-282 1192,-282 1192,-230 1086,-230"/>
</g>
<g id="clust12" class="cluster">
<title>cluster_AuthModule_providers</title>
<polygon fill="none" stroke="black" points="944,-230 944,-282 1078,-282 1078,-230 944,-230"/>
</g>
<g id="clust13" class="cluster">
<title>cluster_MetaOptionsModule</title>
<polygon fill="none" stroke="black" stroke-dasharray="1,5" points="1208,-222 1208,-290 1578,-290 1578,-222 1208,-222"/>
</g>
<g id="clust16" class="cluster">
<title>cluster_MetaOptionsModule_exports</title>
<polygon fill="none" stroke="black" points="1420,-230 1420,-282 1570,-282 1570,-230 1420,-230"/>
</g>
<g id="clust18" class="cluster">
<title>cluster_MetaOptionsModule_providers</title>
<polygon fill="none" stroke="black" points="1216,-230 1216,-282 1412,-282 1412,-230 1216,-230"/>
</g>
<g id="clust19" class="cluster">
<title>cluster_PaginationModule</title>
<polygon fill="none" stroke="black" stroke-dasharray="1,5" points="1586,-222 1586,-290 1942,-290 1942,-222 1586,-222"/>
</g>
<g id="clust22" class="cluster">
<title>cluster_PaginationModule_exports</title>
<polygon fill="none" stroke="black" points="1790,-230 1790,-282 1934,-282 1934,-230 1790,-230"/>
</g>
<g id="clust24" class="cluster">
<title>cluster_PaginationModule_providers</title>
<polygon fill="none" stroke="black" points="1594,-230 1594,-282 1782,-282 1782,-230 1594,-230"/>
</g>
<g id="clust25" class="cluster">
<title>cluster_PostsModule</title>
<polygon fill="none" stroke="black" stroke-dasharray="1,5" points="8,-146 8,-214 160,-214 160,-146 8,-146"/>
</g>
<g id="clust30" class="cluster">
<title>cluster_PostsModule_providers</title>
<polygon fill="none" stroke="black" points="16,-154 16,-206 152,-206 152,-154 16,-154"/>
</g>
<g id="clust31" class="cluster">
<title>cluster_TagsModule</title>
<polygon fill="none" stroke="black" stroke-dasharray="1,5" points="1950,-222 1950,-290 2070,-290 2070,-222 1950,-222"/>
</g>
<g id="clust34" class="cluster">
<title>cluster_TagsModule_exports</title>
<polygon fill="none" stroke="black" points="1958,-230 1958,-282 2062,-282 2062,-230 1958,-230"/>
</g>
<g id="clust37" class="cluster">
<title>cluster_UsersModule</title>
<polygon fill="none" stroke="black" stroke-dasharray="1,5" points="96,-70 96,-138 616,-138 616,-70 96,-70"/>
</g>
<g id="clust40" class="cluster">
<title>cluster_UsersModule_exports</title>
<polygon fill="none" stroke="black" points="498,-78 498,-130 608,-130 608,-78 498,-78"/>
</g>
<g id="clust42" class="cluster">
<title>cluster_UsersModule_providers</title>
<polygon fill="none" stroke="black" points="104,-78 104,-130 490,-130 490,-78 104,-78"/>
</g>
<!-- AuthModule -->
<g id="node1" class="node">
<title>AuthModule</title>
<polygon fill="#8dd3c7" stroke="black" points="623.55,-198 620.55,-202 599.55,-202 596.55,-198 536.45,-198 536.45,-162 623.55,-162 623.55,-198"/>
<text text-anchor="middle" x="580" y="-175.8" font-family="Times,serif" font-size="14.00">AuthModule</text>
</g>
<!-- AppModule -->
<g id="node7" class="node">
<title>AppModule</title>
<polygon fill="#8dd3c7" stroke="black" points="600.66,-339 597.66,-343 576.66,-343 573.66,-339 517.34,-339 517.34,-303 600.66,-303 600.66,-339"/>
<text text-anchor="middle" x="559" y="-316.8" font-family="Times,serif" font-size="14.00">AppModule</text>
</g>
<!-- AuthModule&#45;&gt;AppModule -->
<g id="edge1" class="edge">
<title>AuthModule&#45;&gt;AppModule</title>
<path fill="none" stroke="black" d="M568.53,-198.14C568.53,-198.14 568.53,-292.93 568.53,-292.93"/>
<polygon fill="black" stroke="black" points="565.03,-292.92 568.53,-302.93 572.03,-292.93 565.03,-292.92"/>
</g>
<!-- AuthService  -->
<g id="node9" class="node">
<title>AuthService </title>
<polygon fill="#fb8072" stroke="black" points="1183.98,-274 1094.02,-274 1094.02,-238 1183.98,-238 1183.98,-274"/>
<text text-anchor="middle" x="1139" y="-251.8" font-family="Times,serif" font-size="14.00">AuthService </text>
</g>
<!-- AuthModule&#45;&gt;AuthService  -->
<g id="edge8" class="edge">
<title>AuthModule&#45;&gt;AuthService </title>
<path fill="none" stroke="black" stroke-dasharray="5,2" d="M608.48,-198.05C608.48,-212.37 608.48,-230 608.48,-230 608.48,-230 1139,-230 1139,-230 1139,-230 1139,-230.79 1139,-230.79"/>
<polygon fill="black" stroke="black" points="1135.5,-227.94 1139,-237.94 1142.5,-227.94 1135.5,-227.94"/>
</g>
<!-- MetaOptionsModule -->
<g id="node2" class="node">
<title>MetaOptionsModule</title>
<polygon fill="#8dd3c7" stroke="black" points="774.15,-198 771.15,-202 750.15,-202 747.15,-198 641.85,-198 641.85,-162 774.15,-162 774.15,-198"/>
<text text-anchor="middle" x="708" y="-175.8" font-family="Times,serif" font-size="14.00">MetaOptionsModule</text>
</g>
<!-- PostsModule -->
<g id="node4" class="node">
<title>PostsModule</title>
<polygon fill="#8dd3c7" stroke="black" points="519.61,-274 516.61,-278 495.61,-278 492.61,-274 430.39,-274 430.39,-238 519.61,-238 519.61,-274"/>
<text text-anchor="middle" x="475" y="-251.8" font-family="Times,serif" font-size="14.00">PostsModule</text>
</g>
<!-- MetaOptionsModule&#45;&gt;PostsModule -->
<g id="edge14" class="edge">
<title>MetaOptionsModule&#45;&gt;PostsModule</title>
<path fill="none" stroke="black" d="M721.26,-198.04C721.26,-219.66 721.26,-253 721.26,-253 721.26,-253 529.6,-253 529.6,-253"/>
<polygon fill="black" stroke="black" points="529.6,-249.5 519.6,-253 529.6,-256.5 529.6,-249.5"/>
</g>
<!-- MetaOptionsModule&#45;&gt;AppModule -->
<g id="edge2" class="edge">
<title>MetaOptionsModule&#45;&gt;AppModule</title>
<path fill="none" stroke="black" d="M747.79,-198.21C747.79,-235.06 747.79,-315 747.79,-315 747.79,-315 610.9,-315 610.9,-315"/>
<polygon fill="black" stroke="black" points="610.9,-311.5 600.9,-315 610.9,-318.5 610.9,-311.5"/>
</g>
<!-- MetaOptionsService  -->
<g id="node11" class="node">
<title>MetaOptionsService </title>
<polygon fill="#fb8072" stroke="black" points="1562.08,-274 1427.92,-274 1427.92,-238 1562.08,-238 1562.08,-274"/>
<text text-anchor="middle" x="1495" y="-251.8" font-family="Times,serif" font-size="14.00">MetaOptionsService </text>
</g>
<!-- MetaOptionsModule&#45;&gt;MetaOptionsService  -->
<g id="edge10" class="edge">
<title>MetaOptionsModule&#45;&gt;MetaOptionsService </title>
<path fill="none" stroke="black" stroke-dasharray="5,2" d="M668.21,-198.19C668.21,-206.28 668.21,-214 668.21,-214 668.21,-214 1495,-214 1495,-214 1495,-214 1495,-227.94 1495,-227.94"/>
<polygon fill="black" stroke="black" points="1491.5,-227.94 1495,-237.94 1498.5,-227.94 1491.5,-227.94"/>
</g>
<!-- PaginationModule -->
<g id="node3" class="node">
<title>PaginationModule</title>
<polygon fill="#8dd3c7" stroke="black" points="911.93,-198 908.93,-202 887.93,-202 884.93,-198 792.07,-198 792.07,-162 911.93,-162 911.93,-198"/>
<text text-anchor="middle" x="852" y="-175.8" font-family="Times,serif" font-size="14.00">PaginationModule</text>
</g>
<!-- PaginationModule&#45;&gt;PostsModule -->
<g id="edge15" class="edge">
<title>PaginationModule&#45;&gt;PostsModule</title>
<path fill="none" stroke="black" d="M832.09,-198.15C832.09,-221.76 832.09,-260 832.09,-260 832.09,-260 529.86,-260 529.86,-260"/>
<polygon fill="black" stroke="black" points="529.86,-256.5 519.86,-260 529.86,-263.5 529.86,-256.5"/>
</g>
<!-- PaginationModule&#45;&gt;AppModule -->
<g id="edge3" class="edge">
<title>PaginationModule&#45;&gt;AppModule</title>
<path fill="none" stroke="black" d="M871.91,-198.03C871.91,-237.28 871.91,-327 871.91,-327 871.91,-327 610.88,-327 610.88,-327"/>
<polygon fill="black" stroke="black" points="610.88,-323.5 600.88,-327 610.88,-330.5 610.88,-323.5"/>
</g>
<!-- PaginationProvider  -->
<g id="node13" class="node">
<title>PaginationProvider </title>
<polygon fill="#fb8072" stroke="black" points="1925.59,-274 1798.41,-274 1798.41,-238 1925.59,-238 1925.59,-274"/>
<text text-anchor="middle" x="1862" y="-251.8" font-family="Times,serif" font-size="14.00">PaginationProvider </text>
</g>
<!-- PaginationModule&#45;&gt;PaginationProvider  -->
<g id="edge12" class="edge">
<title>PaginationModule&#45;&gt;PaginationProvider </title>
<path fill="none" stroke="black" stroke-dasharray="5,2" d="M911.78,-174C1128.75,-174 1862,-174 1862,-174 1862,-174 1862,-227.8 1862,-227.8"/>
<polygon fill="black" stroke="black" points="1858.5,-227.8 1862,-237.8 1865.5,-227.8 1858.5,-227.8"/>
</g>
<!-- PostsModule&#45;&gt;AppModule -->
<g id="edge4" class="edge">
<title>PostsModule&#45;&gt;AppModule</title>
<path fill="none" stroke="black" d="M519.75,-267C523.05,-267 525.11,-267 525.11,-267 525.11,-267 525.11,-292.72 525.11,-292.72"/>
<polygon fill="black" stroke="black" points="521.61,-292.72 525.11,-302.72 528.61,-292.72 521.61,-292.72"/>
</g>
<!-- TagsModule -->
<g id="node5" class="node">
<title>TagsModule</title>
<polygon fill="#8dd3c7" stroke="black" points="518.26,-198 515.26,-202 494.26,-202 491.26,-198 431.74,-198 431.74,-162 518.26,-162 518.26,-198"/>
<text text-anchor="middle" x="475" y="-175.8" font-family="Times,serif" font-size="14.00">TagsModule</text>
</g>
<!-- TagsModule&#45;&gt;PostsModule -->
<g id="edge16" class="edge">
<title>TagsModule&#45;&gt;PostsModule</title>
<path fill="none" stroke="black" d="M460.54,-198.01C460.54,-198.01 460.54,-227.85 460.54,-227.85"/>
<polygon fill="black" stroke="black" points="457.04,-227.85 460.54,-237.85 464.04,-227.85 457.04,-227.85"/>
</g>
<!-- TagsModule&#45;&gt;AppModule -->
<g id="edge5" class="edge">
<title>TagsModule&#45;&gt;AppModule</title>
<path fill="none" stroke="black" d="M518.31,-180C525.5,-180 530.67,-180 530.67,-180 530.67,-180 530.67,-292.86 530.67,-292.86"/>
<polygon fill="black" stroke="black" points="527.17,-292.86 530.67,-302.86 534.17,-292.86 527.17,-292.86"/>
</g>
<!-- TagsService  -->
<g id="node16" class="node">
<title>TagsService </title>
<polygon fill="#fb8072" stroke="black" points="2054.19,-274 1965.81,-274 1965.81,-238 2054.19,-238 2054.19,-274"/>
<text text-anchor="middle" x="2010" y="-251.8" font-family="Times,serif" font-size="14.00">TagsService </text>
</g>
<!-- TagsModule&#45;&gt;TagsService  -->
<g id="edge19" class="edge">
<title>TagsModule&#45;&gt;TagsService </title>
<path fill="none" stroke="black" stroke-dasharray="5,2" d="M489.46,-198.06C489.46,-202.49 489.46,-206 489.46,-206 489.46,-206 2010,-206 2010,-206 2010,-206 2010,-227.95 2010,-227.95"/>
<polygon fill="black" stroke="black" points="2006.5,-227.95 2010,-237.95 2013.5,-227.95 2006.5,-227.95"/>
</g>
<!-- UsersModule -->
<g id="node6" class="node">
<title>UsersModule</title>
<polygon fill="#8dd3c7" stroke="black" points="413.92,-198 410.92,-202 389.92,-202 386.92,-198 322.08,-198 322.08,-162 413.92,-162 413.92,-198"/>
<text text-anchor="middle" x="368" y="-175.8" font-family="Times,serif" font-size="14.00">UsersModule</text>
</g>
<!-- UsersModule&#45;&gt;PostsModule -->
<g id="edge17" class="edge">
<title>UsersModule&#45;&gt;PostsModule</title>
<path fill="none" stroke="black" d="M383.24,-198.03C383.24,-218.77 383.24,-250 383.24,-250 383.24,-250 420.19,-250 420.19,-250"/>
<polygon fill="black" stroke="black" points="420.19,-253.5 430.19,-250 420.19,-246.5 420.19,-253.5"/>
</g>
<!-- UsersModule&#45;&gt;AppModule -->
<g id="edge6" class="edge">
<title>UsersModule&#45;&gt;AppModule</title>
<path fill="none" stroke="black" d="M352.76,-198.21C352.76,-235.06 352.76,-315 352.76,-315 352.76,-315 507.26,-315 507.26,-315"/>
<polygon fill="black" stroke="black" points="507.26,-318.5 517.26,-315 507.26,-311.5 507.26,-318.5"/>
</g>
<!-- UsersService  -->
<g id="node17" class="node">
<title>UsersService </title>
<polygon fill="#fb8072" stroke="black" points="599.85,-122 506.15,-122 506.15,-86 599.85,-86 599.85,-122"/>
<text text-anchor="middle" x="553" y="-99.8" font-family="Times,serif" font-size="14.00">UsersService </text>
</g>
<!-- UsersModule&#45;&gt;UsersService  -->
<g id="edge20" class="edge">
<title>UsersModule&#45;&gt;UsersService </title>
<path fill="none" stroke="black" stroke-dasharray="5,2" d="M383.24,-161.89C383.24,-152.1 383.24,-142 383.24,-142 383.24,-142 512.35,-142 512.35,-142 512.35,-142 512.35,-132.11 512.35,-132.11"/>
<polygon fill="black" stroke="black" points="515.85,-132.11 512.35,-122.11 508.85,-132.11 515.85,-132.11"/>
</g>
<!-- AppService -->
<g id="node8" class="node">
<title>AppService</title>
<ellipse fill="#fdb462" stroke="black" cx="241" cy="-256" rx="56.74" ry="18"/>
<text text-anchor="middle" x="241" y="-251.8" font-family="Times,serif" font-size="14.00">AppService</text>
</g>
<!-- AppService&#45;&gt;AppModule -->
<g id="edge7" class="edge">
<title>AppService&#45;&gt;AppModule</title>
<path fill="none" stroke="black" d="M241,-274.28C241,-295.32 241,-327 241,-327 241,-327 507.1,-327 507.1,-327"/>
<polygon fill="black" stroke="black" points="507.1,-330.5 517.1,-327 507.1,-323.5 507.1,-330.5"/>
</g>
<!-- AuthService -->
<g id="node10" class="node">
<title>AuthService</title>
<ellipse fill="#fdb462" stroke="black" cx="1011" cy="-256" rx="59.11" ry="18"/>
<text text-anchor="middle" x="1011" y="-251.8" font-family="Times,serif" font-size="14.00">AuthService</text>
</g>
<!-- AuthService&#45;&gt;AuthModule -->
<g id="edge9" class="edge">
<title>AuthService&#45;&gt;AuthModule</title>
<path fill="none" stroke="black" d="M961.39,-246C855.33,-246 616.13,-246 616.13,-246 616.13,-246 616.13,-208.03 616.13,-208.03"/>
<polygon fill="black" stroke="black" points="619.63,-208.03 616.13,-198.03 612.63,-208.03 619.63,-208.03"/>
</g>
<!-- MetaOptionsService -->
<g id="node12" class="node">
<title>MetaOptionsService</title>
<ellipse fill="#fdb462" stroke="black" cx="1314" cy="-256" rx="90.33" ry="18"/>
<text text-anchor="middle" x="1314" y="-251.8" font-family="Times,serif" font-size="14.00">MetaOptionsService</text>
</g>
<!-- MetaOptionsService&#45;&gt;MetaOptionsModule -->
<g id="edge11" class="edge">
<title>MetaOptionsService&#45;&gt;MetaOptionsModule</title>
<path fill="none" stroke="black" d="M1314,-237.81C1314,-229.72 1314,-222 1314,-222 1314,-222 694.74,-222 694.74,-222 694.74,-222 694.74,-208.06 694.74,-208.06"/>
<polygon fill="black" stroke="black" points="698.24,-208.06 694.74,-198.06 691.24,-208.06 698.24,-208.06"/>
</g>
<!-- PaginationProvider -->
<g id="node14" class="node">
<title>PaginationProvider</title>
<ellipse fill="#fdb462" stroke="black" cx="1688" cy="-256" rx="85.69" ry="18"/>
<text text-anchor="middle" x="1688" y="-251.8" font-family="Times,serif" font-size="14.00">PaginationProvider</text>
</g>
<!-- PaginationProvider&#45;&gt;PaginationModule -->
<g id="edge13" class="edge">
<title>PaginationProvider&#45;&gt;PaginationModule</title>
<path fill="none" stroke="black" d="M1688,-237.97C1688,-217.23 1688,-186 1688,-186 1688,-186 921.79,-186 921.79,-186"/>
<polygon fill="black" stroke="black" points="921.79,-182.5 911.79,-186 921.79,-189.5 921.79,-182.5"/>
</g>
<!-- PostsService -->
<g id="node15" class="node">
<title>PostsService</title>
<ellipse fill="#fdb462" stroke="black" cx="84" cy="-180" rx="60.27" ry="18"/>
<text text-anchor="middle" x="84" y="-175.8" font-family="Times,serif" font-size="14.00">PostsService</text>
</g>
<!-- PostsService&#45;&gt;PostsModule -->
<g id="edge18" class="edge">
<title>PostsService&#45;&gt;PostsModule</title>
<path fill="none" stroke="black" d="M141.02,-186C207.96,-186 309.95,-186 309.95,-186 309.95,-186 309.95,-262 309.95,-262 309.95,-262 420.34,-262 420.34,-262"/>
<polygon fill="black" stroke="black" points="420.34,-265.5 430.34,-262 420.34,-258.5 420.34,-265.5"/>
</g>
<!-- UsersCreateManyProvider -->
<g id="node18" class="node">
<title>UsersCreateManyProvider</title>
<ellipse fill="#fdb462" stroke="black" cx="368" cy="-104" rx="114" ry="18"/>
<text text-anchor="middle" x="368" y="-99.8" font-family="Times,serif" font-size="14.00">UsersCreateManyProvider</text>
</g>
<!-- UsersCreateManyProvider&#45;&gt;UsersModule -->
<g id="edge21" class="edge">
<title>UsersCreateManyProvider&#45;&gt;UsersModule</title>
<path fill="none" stroke="black" d="M352.76,-122.01C352.76,-122.01 352.76,-151.85 352.76,-151.85"/>
<polygon fill="black" stroke="black" points="349.26,-151.85 352.76,-161.85 356.26,-151.85 349.26,-151.85"/>
</g>
<!-- UsersService -->
<g id="node19" class="node">
<title>UsersService</title>
<ellipse fill="#fdb462" stroke="black" cx="174" cy="-104" rx="61.95" ry="18"/>
<text text-anchor="middle" x="174" y="-99.8" font-family="Times,serif" font-size="14.00">UsersService</text>
</g>
<!-- UsersService&#45;&gt;UsersModule -->
<g id="edge22" class="edge">
<title>UsersService&#45;&gt;UsersModule</title>
<path fill="none" stroke="black" d="M210.18,-118.85C210.18,-139.39 210.18,-174 210.18,-174 210.18,-174 311.93,-174 311.93,-174"/>
<polygon fill="black" stroke="black" points="311.93,-177.5 321.93,-174 311.93,-170.5 311.93,-177.5"/>
</g>
</g>
</svg>
